<svg id="Layer_5" enable-background="new 0 0 64 64" height="512" viewBox="0 0 64 64" width="512" xmlns="http://www.w3.org/2000/svg" xmlns:xlink="http://www.w3.org/1999/xlink"><linearGradient id="SVGID_1_" gradientUnits="userSpaceOnUse" x1="32" x2="32" y1="63" y2="1"><stop offset="0" stop-color="#9f2fff"/><stop offset="1" stop-color="#0bb1d3"/></linearGradient><path d="m60 1h-18c-1.654 0-3 1.346-3 3v5.273c-1.973-1.424-4.386-2.273-7-2.273s-5.027.849-7 2.273v-5.273c0-1.654-1.346-3-3-3h-18c-1.654 0-3 1.346-3 3v12c0 1.302.839 2.402 2 2.816v34.184h-2v1c0 4.962 4.037 9 9 9h44c4.963 0 9-4.038 9-9v-1h-2v-34.184c1.161-.414 2-1.514 2-2.816v-12c0-1.654-1.346-3-3-3zm-18 18v3h-1v-2h-5.528c-2.771 0-5.546-.655-8.024-1.895l-.52-.259-3.928 2.619v1.535h-1v-3c0-5.514 4.486-10 10-10s10 4.486 10 10zm6-9c0-1.654 1.346-3 3-3s3 1.346 3 3-1.346 3-3 3-3-1.346-3-3zm5.382 7-2.764 5.527c-.145.292-.438.473-.764.473-.47 0-.854-.383-.854-.854v-5.146h-2.457c1.126-1.251 2.735-2 4.457-2 1.721 0 3.331.748 4.457 2zm-6.382 2v3.146c0 1.574 1.28 2.854 2.854 2.854 1.087 0 2.065-.604 2.553-1.578l2.211-4.422h.382v30h-4.073c-.355-3.634-2.594-6.881-5.942-8.443l-7.831-3.655c-.701-.327-1.154-1.039-1.154-1.813v-1.242c.331-.267.645-.552.948-.847h4.052c1.654 0 3-1.346 3-3v-.184c1.161-.414 2-1.514 2-2.816v-2c0-1.302-.839-2.402-2-2.816v-3.184zm-37-9c0-1.654 1.346-3 3-3s3 1.346 3 3-1.346 3-3 3-3-1.346-3-3zm-1.457 7c1.126-1.252 2.735-2 4.457-2 1.721 0 3.331.749 4.457 2h-2.457v5.146c0 .471-.384.854-.854.854-.325 0-.618-.181-.764-.472l-2.764-5.528zm.457 2h.382l2.211 4.423c.487.973 1.466 1.577 2.553 1.577 1.574 0 2.854-1.28 2.854-2.854v-3.146h3v3.184c-1.161.414-2 1.514-2 2.816v2c0 1.654 1.346 3 3 3h3.739c.833 1.471 1.937 2.78 3.261 3.847v1.242c0 .774-.453 1.485-1.154 1.812l-7.831 3.655c-3.348 1.562-5.587 4.81-5.942 8.443h-4.073zm14.021 5c.057 1.386.331 2.731.796 4h-2.817c-.552 0-1-.449-1-1v-2c0-.551.448-1 1-1zm17.958 0h2.021c.552 0 1 .449 1 1v2c0 .551-.448 1-1 1h-2.817c.464-1.269.738-2.614.796-4zm-1.718 6h2.739c0 .551-.448 1-1 1h-2.358c.222-.323.426-.658.619-1zm-.261-6.544c0 2.832-1.076 5.505-2.894 7.544h-4.106v2h1.756c-.553.355-1.138.669-1.756.925-4.202-1.74-7-5.899-7-10.469v-1.921l2.08-1.387c2.618 1.213 5.507 1.852 8.392 1.852h3.528zm-4.528 19.45-1.226-1.839 2.337-2.804c.14.107.288.205.443.294zm-.147-6.258-2.325 2.79-2.325-2.79c.196-.46.307-.959.319-1.473.53.288 1.08.547 1.655.762l.351.131.352-.131c.575-.215 1.124-.475 1.655-.762.01.514.122 1.012.318 1.473zm-6.351 1.908c.155-.089.303-.186.443-.294l2.337 2.804-1.226 1.839zm-8.114 3.813 6.302-2.941 3.419 9.572h-14.508c.346-2.859 2.141-5.396 4.787-6.631zm11.844 6.631-1.338-3.747 1.634-2.45 1.634 2.451-1.338 3.746zm6.134-9.572 6.302 2.941c2.646 1.235 4.442 3.772 4.788 6.631h-14.509zm-34.838-35.428c0-.551.448-1 1-1h18c.552 0 1 .449 1 1v7.089c-1.442 1.638-2.441 3.668-2.819 5.911h-.26c-.849-1.466-2.124-2.595-3.619-3.274 1.033-.917 1.698-2.239 1.698-3.726 0-2.757-2.243-5-5-5s-5 2.243-5 5c0 1.487.665 2.809 1.699 3.726-1.495.679-2.771 1.808-3.62 3.274h-2.079c-.552 0-1-.449-1-1zm51 57h-44c-3.521 0-6.442-2.612-6.929-6h19.03c.465 2.279 2.484 4 4.899 4h10c2.414 0 4.434-1.721 4.899-4h19.03c-.487 3.388-3.408 6-6.929 6zm-29.816-6h15.631c-.414 1.161-1.514 2-2.816 2h-9.999c-1.302 0-2.402-.839-2.816-2zm-19.184-2v-34h2v32h50v-32h2v34zm56-37c0 .551-.448 1-1 1h-2.079c-.849-1.466-2.124-2.595-3.62-3.274 1.034-.917 1.699-2.239 1.699-3.726 0-2.757-2.243-5-5-5s-5 2.243-5 5c0 1.487.665 2.809 1.699 3.726-1.495.679-2.77 1.808-3.619 3.274h-.26c-.379-2.243-1.377-4.272-2.819-5.911v-7.089c0-.551.448-1 1-1h18c.552 0 1 .449 1 1v12zm-8 23h-2v-2h2zm0 4h-2v-2h2zm0 4h-2v-2h2zm-42-12h2v2h-2zm2-8v2h-2v-2zm-2 4h2v2h-2z" fill="url(#SVGID_1_)"/></svg>