<svg id="Layer_5" enable-background="new 0 0 64 64" height="512" viewBox="0 0 64 64" width="512" xmlns="http://www.w3.org/2000/svg" xmlns:xlink="http://www.w3.org/1999/xlink"><linearGradient id="SVGID_1_" gradientUnits="userSpaceOnUse" x1="32" x2="32" y1="63" y2="1"><stop offset="0" stop-color="#9f2fff"/><stop offset="1" stop-color="#0bb1d3"/></linearGradient><path d="m56.28 49.522c3.015-3.446 4.72-7.915 4.72-12.522v-8h-2.184c.112-.314.184-.648.184-1v-6c0-1.654-1.346-3-3-3h-3.184c.112-.314.184-.648.184-1v-6c0-1.654-1.346-3-3-3h-8c-1.654 0-3 1.346-3 3v6c0 .352.072.686.184 1h-3.184c-1.654 0-3 1.346-3 3v12h-8.323l-2-5h-1.677v-14.838l2.388-7.162h-5.388v-6h-2v6h-2v-4h-2v4h-2v-4h-2v4h-5.388l2.388 7.162v14.838h-2v8c0 4.609 1.706 9.078 4.722 12.524-2.156.646-3.62 1.753-4.614 2.522-1.044.808-1.232.954-2.108.954v2c1.56 0 2.189-.487 3.333-1.372 1.433-1.109 3.396-2.628 7.005-2.628s5.572 1.519 7.005 2.628c1.143.885 1.773 1.372 3.333 1.372 1.558 0 2.187-.487 3.329-1.372 1.432-1.109 3.392-2.628 7.002-2.628s5.571 1.519 7.003 2.628c1.143.885 1.773 1.372 3.332 1.372 1.556 0 2.185-.486 3.328-1.372 1.433-1.109 3.394-2.628 7.002-2.628 3.606 0 5.567 1.519 7.001 2.629 1.141.884 1.77 1.371 3.327 1.371v-2c-.873 0-1.061-.146-2.104-.954-.994-.77-2.458-1.878-4.616-2.524zm.72-27.522v6c0 .552-.448 1-1 1h-8c-.552 0-1-.448-1-1v-6c0-.552.448-1 1-1h1v4h6v-4h1c.552 0 1 .448 1 1zm-6-1h2v2h-2zm-6-10h2v2h-2zm-4 7v-6c0-.552.448-1 1-1h1v4h6v-4h1c.552 0 1 .448 1 1v6c0 .552-.448 1-1 1h-2-4-2c-.552 0-1-.448-1-1zm-2 3h2v2h-2zm-4 1c0-.552.448-1 1-1h1v4h6v-4h1c.552 0 1 .448 1 1v6 1h-3.677l-2 5h-4.323zm-14.388-13-1.333 4h-12.558l-1.333-4zm-13.612 6h12v14h-2v-4h-8v4h-2zm8 14h-4v-2h4zm29.444 23.049c-1.042.805-1.23.951-2.102.951-.875 0-1.063-.146-2.107-.954-1.472-1.139-3.934-3.046-8.228-3.046-4.293 0-6.755 1.907-8.228 3.047-1.042.807-1.229.953-2.103.953-.876 0-1.064-.146-2.108-.954-1.473-1.139-3.937-3.046-8.23-3.046-.452 0-.872.032-1.284.071-3.254-3.215-5.054-7.479-5.054-12.071v-6h16.323l2 5h17.354l2-5h5.323 8 3v6c0 4.592-1.799 8.855-5.052 12.07-.41-.039-.827-.07-1.276-.07-4.292 0-6.755 1.907-8.228 3.049zm11.555 6.322c1.434 1.11 3.395 2.629 7.001 2.629v2c-4.291 0-6.753-1.907-8.224-3.046-1.044-.808-1.231-.954-2.104-.954-.872 0-1.061.146-2.103.951-1.472 1.142-3.935 3.049-8.227 3.049-4.295 0-6.757-1.907-8.229-3.046-1.044-.808-1.232-.954-2.106-.954-.872 0-1.061.146-2.103.951-1.472 1.142-3.935 3.049-8.228 3.049s-6.757-1.907-8.229-3.046c-1.045-.808-1.233-.954-2.109-.954s-1.064.146-2.108.954c-1.473 1.139-3.937 3.046-8.23 3.046v-2c3.609 0 5.572-1.519 7.005-2.628 1.143-.885 1.773-1.372 3.333-1.372s2.189.487 3.333 1.372c1.433 1.109 3.395 2.628 7.005 2.628 3.608 0 5.57-1.519 7.003-2.628 1.143-.886 1.772-1.372 3.328-1.372 1.558 0 2.188.487 3.331 1.372 1.432 1.109 3.392 2.628 7.004 2.628 3.607 0 5.569-1.519 7.002-2.628 1.143-.886 1.772-1.372 3.328-1.372 1.557 0 2.185.487 3.327 1.371zm2.449-3.162c1.24.961 2.312 1.791 4.552 1.791v2c-2.924 0-4.439-1.174-5.776-2.209-1.241-.961-2.312-1.791-4.552-1.791s-3.312.83-4.553 1.791c-1.337 1.035-2.852 2.209-5.777 2.209-2.926 0-4.442-1.174-5.78-2.209-1.242-.961-2.314-1.791-4.555-1.791-2.24 0-3.312.83-4.553 1.79-1.338 1.036-2.853 2.21-5.778 2.21-2.926 0-4.442-1.174-5.781-2.209-1.242-.961-2.314-1.791-4.557-1.791s-3.315.83-4.557 1.791c-1.339 1.035-2.855 2.209-5.781 2.209v-2c2.243 0 3.315-.83 4.557-1.791 1.339-1.035 2.855-2.209 5.781-2.209s4.442 1.174 5.781 2.209c1.241.961 2.314 1.791 4.557 1.791 2.241 0 3.312-.83 4.554-1.791 1.336-1.035 2.853-2.209 5.777-2.209 2.925 0 4.441 1.174 5.779 2.209 1.241.961 2.314 1.791 4.556 1.791 2.24 0 3.312-.83 4.553-1.791 1.336-1.035 2.852-2.209 5.777-2.209 2.924 0 4.439 1.174 5.776 2.209zm-4.448-13.209h-2c0 1.421-1.75 2.649-4 2.936v-6.121c1.161-.414 2-1.514 2-2.816 0-1.654-1.346-3-3-3s-3 1.346-3 3c0 1.302.839 2.402 2 2.816v6.121c-2.25-.287-4-1.515-4-2.936h-2c0 2.804 3.075 5 7 5s7-2.196 7-5zm-7-7c.552 0 1 .448 1 1s-.448 1-1 1-1-.448-1-1 .448-1 1-1zm-33-2c-3.859 0-7 3.141-7 7s3.141 7 7 7 7-3.141 7-7-3.141-7-7-7zm0 12c-2.757 0-5-2.243-5-5s2.243-5 5-5 5 2.243 5 5-2.243 5-5 5zm27-5h-2v-2h2zm-18-2h2v2h-2zm8 0h2v2h-2zm-4 0h2v2h-2zm8 0h2v2h-2zm-18-21h-8v6h8zm-2 4h-4v-2h4z" fill="url(#SVGID_1_)"/></svg>