<?xml version="1.0"?>
<svg xmlns="http://www.w3.org/2000/svg" xmlns:xlink="http://www.w3.org/1999/xlink" id="Gradient" viewBox="0 0 512 512" width="512" height="512"><defs><linearGradient id="linear-gradient" x1="256" y1="496" x2="256" y2="16" gradientUnits="userSpaceOnUse"><stop offset="0" stop-color="#12c2e9"/><stop offset="0.5" stop-color="#c471ed"/><stop offset="1" stop-color="#f64f59"/></linearGradient></defs><path d="M488,32H306.538a87.815,87.815,0,0,0-101.076,0H24a8,8,0,0,0-8,8V488a8,8,0,0,0,8,8H488a8,8,0,0,0,8-8V40A8,8,0,0,0,488,32Zm-8,128H323.833a88.317,88.317,0,0,0,10.539-16H456a8,8,0,0,0,8-8V72a8,8,0,0,0-8-8H334.372a88.317,88.317,0,0,0-10.539-16H480Zm0,48a16,16,0,0,1-32,0V176h32Zm-80-32h32v32a16,16,0,0,1-32,0Zm-48,0h32v32a16,16,0,0,1-32,0ZM340.673,80H448v48H340.673a88.228,88.228,0,0,0,0-48ZM328,104a72,72,0,1,1-72-72A72.081,72.081,0,0,1,328,104ZM171.327,128H64V80H171.327a88.228,88.228,0,0,0,0,48Zm16.84-80a88.317,88.317,0,0,0-10.539,16H56a8,8,0,0,0-8,8v64a8,8,0,0,0,8,8H177.628a88.317,88.317,0,0,0,10.539,16H32V48ZM256,400H224V384h32Zm16,16v16H192V416Zm8-16h-8V376a8,8,0,0,0-8-8H216a8,8,0,0,0-8,8v24H184a8,8,0,0,0-8,8v24H160V392a8,8,0,0,0-8-8h-8V368a8,8,0,0,0,0-16H128a8,8,0,0,0,0,16v16h-8a8,8,0,0,0-8,8v40H96V408a8,8,0,0,0-8-8H56a8,8,0,0,0-8,8v24H32V336H304v96H288V408A8,8,0,0,0,280,400Zm-136,0v32H128V400ZM80,432H64V416H80ZM64,288H88V272H64V256h48v64H64Zm128,32H160V304h32Zm72-48H248V256h16Zm-24,16h32v32H240Zm64,32H288V280a8,8,0,0,0-8-8V248a8,8,0,0,0-8-8H240a8,8,0,0,0-8,8v24a8,8,0,0,0-8,8v40H208V296a8,8,0,0,0-8-8H152a8,8,0,0,0-8,8v24H128V248a8,8,0,0,0-8-8H56a8,8,0,0,0-8,8v72H32V224H304ZM32,448H312a8,8,0,0,0,8-8V216a8,8,0,0,0-8-8H32V176H205.462a87.815,87.815,0,0,0,101.076,0H336V480H32Zm320,32V235.7a31.916,31.916,0,0,0,40-6.563,31.934,31.934,0,0,0,48,0,31.916,31.916,0,0,0,40,6.563V480ZM456,256H376a8,8,0,0,0-8,8v32a8,8,0,0,0,8,8h80a8,8,0,0,0,8-8V264A8,8,0,0,0,456,256Zm-8,32H384V272h64Zm-64,56a8,8,0,1,1-8-8A8,8,0,0,1,384,344ZM72,400a8,8,0,1,1,8-8A8,8,0,0,1,72,400ZM176,288a8,8,0,1,1,8-8A8,8,0,0,1,176,288ZM200,88v32a8,8,0,0,0,8,8h24v24a8,8,0,0,0,8,8h32a8,8,0,0,0,8-8V128h24a8,8,0,0,0,8-8V88a8,8,0,0,0-8-8H280V56a8,8,0,0,0-8-8H240a8,8,0,0,0-8,8V80H208A8,8,0,0,0,200,88Zm16,8h24a8,8,0,0,0,8-8V64h16V88a8,8,0,0,0,8,8h24v16H272a8,8,0,0,0-8,8v24H248V120a8,8,0,0,0-8-8H216Z" style="fill:url(#linear-gradient)"/></svg>
